<svg width="267" height="96" viewBox="0 0 267 96" fill="none" xmlns="http://www.w3.org/2000/svg">
<rect x="0.500549" y="0.549805" width="265.622" height="95.3322" rx="8.13811" fill="black"/>
<path d="M60.4101 58.4844C59.0522 58.4844 57.8245 58.2519 56.727 57.7868C55.6481 57.3218 54.7925 56.6521 54.16 55.7779C53.5276 54.9036 53.202 53.8712 53.1834 52.6807H57.3688C57.4246 53.4806 57.7036 54.113 58.2058 54.5781C58.7267 55.0431 59.4335 55.2756 60.3264 55.2756C61.2378 55.2756 61.954 55.0617 62.4748 54.6339C62.9957 54.1875 63.2561 53.6108 63.2561 52.904C63.2561 52.3273 63.0794 51.853 62.726 51.481C62.3725 51.1089 61.9261 50.8206 61.3867 50.616C60.8658 50.3928 60.1404 50.151 59.2103 49.8905C57.9454 49.5185 56.913 49.1558 56.1132 48.8023C55.3319 48.4303 54.653 47.8816 54.0763 47.1561C53.5183 46.4121 53.2392 45.4262 53.2392 44.1985C53.2392 43.0452 53.5276 42.0407 54.1042 41.1851C54.6809 40.3294 55.49 39.6784 56.5317 39.2319C57.5734 38.7669 58.7639 38.5344 60.1032 38.5344C62.1121 38.5344 63.7397 39.0273 64.986 40.0132C66.2509 40.9805 66.9485 42.3384 67.0787 44.0869H62.7818C62.7446 43.4172 62.4562 42.8685 61.9168 42.4407C61.396 41.9942 60.6984 41.771 59.8241 41.771C59.0615 41.771 58.4476 41.9663 57.9826 42.357C57.5362 42.7476 57.313 43.3149 57.313 44.059C57.313 44.5798 57.4804 45.017 57.8152 45.3704C58.1686 45.7052 58.5965 45.9842 59.0987 46.2075C59.6195 46.4121 60.345 46.6539 61.2751 46.9329C62.5399 47.3049 63.5723 47.677 64.3722 48.049C65.172 48.421 65.8603 48.9791 66.4369 49.7231C67.0136 50.4672 67.3019 51.4437 67.3019 52.6528C67.3019 53.6945 67.0322 54.6618 66.4927 55.5547C65.9533 56.4475 65.1627 57.1637 64.1211 57.7031C63.0794 58.224 61.8424 58.4844 60.4101 58.4844ZM87.4019 38.8134V58.2891H83.4956V50.0021H75.1529V58.2891H71.2466V38.8134H75.1529V46.8213H83.4956V38.8134H87.4019ZM100.845 58.4844C99.0221 58.4844 97.348 58.0565 95.8226 57.2009C94.2973 56.3452 93.0882 55.164 92.1954 53.6573C91.3025 52.132 90.8561 50.4114 90.8561 48.4954C90.8561 46.5981 91.3025 44.8961 92.1954 43.3893C93.0882 41.864 94.2973 40.6735 95.8226 39.8179C97.348 38.9622 99.0221 38.5344 100.845 38.5344C102.687 38.5344 104.361 38.9622 105.867 39.8179C107.393 40.6735 108.593 41.864 109.467 43.3893C110.36 44.8961 110.806 46.5981 110.806 48.4954C110.806 50.4114 110.36 52.132 109.467 53.6573C108.593 55.164 107.393 56.3452 105.867 57.2009C104.342 58.0565 102.668 58.4844 100.845 58.4844ZM100.845 54.9966C102.017 54.9966 103.049 54.7362 103.942 54.2154C104.835 53.6759 105.533 52.9133 106.035 51.9274C106.537 50.9415 106.788 49.7975 106.788 48.4954C106.788 47.1933 106.537 46.0586 106.035 45.0914C105.533 44.1055 104.835 43.3521 103.942 42.8313C103.049 42.3105 102.017 42.05 100.845 42.05C99.6731 42.05 98.6315 42.3105 97.72 42.8313C96.8271 43.3521 96.1296 44.1055 95.6273 45.0914C95.1251 46.0586 94.874 47.1933 94.874 48.4954C94.874 49.7975 95.1251 50.9415 95.6273 51.9274C96.1296 52.9133 96.8271 53.6759 97.72 54.2154C98.6315 54.7362 99.6731 54.9966 100.845 54.9966ZM128.472 44.8403C128.472 45.8819 128.221 46.8585 127.719 47.77C127.235 48.6814 126.464 49.4162 125.403 49.9742C124.362 50.5323 123.041 50.8113 121.441 50.8113H118.177V58.2891H114.27V38.8134H121.441C122.948 38.8134 124.231 39.0738 125.292 39.5947C126.352 40.1155 127.142 40.8316 127.663 41.7431C128.203 42.6546 128.472 43.687 128.472 44.8403ZM121.274 47.6584C122.353 47.6584 123.152 47.4165 123.673 46.9329C124.194 46.4307 124.455 45.7331 124.455 44.8403C124.455 42.9429 123.394 41.9942 121.274 41.9942H118.177V47.6584H121.274ZM155.668 58.2891H151.762L142.917 44.924V58.2891H139.011V38.7855H142.917L151.762 52.1785V38.7855H155.668V58.2891ZM169.127 58.4844C167.304 58.4844 165.63 58.0565 164.104 57.2009C162.579 56.3452 161.37 55.164 160.477 53.6573C159.584 52.132 159.138 50.4114 159.138 48.4954C159.138 46.5981 159.584 44.8961 160.477 43.3893C161.37 41.864 162.579 40.6735 164.104 39.8179C165.63 38.9622 167.304 38.5344 169.127 38.5344C170.968 38.5344 172.642 38.9622 174.149 39.8179C175.674 40.6735 176.874 41.864 177.748 43.3893C178.641 44.8961 179.088 46.5981 179.088 48.4954C179.088 50.4114 178.641 52.132 177.748 53.6573C176.874 55.164 175.674 56.3452 174.149 57.2009C172.624 58.0565 170.95 58.4844 169.127 58.4844ZM169.127 54.9966C170.299 54.9966 171.331 54.7362 172.224 54.2154C173.117 53.6759 173.814 52.9133 174.316 51.9274C174.819 50.9415 175.07 49.7975 175.07 48.4954C175.07 47.1933 174.819 46.0586 174.316 45.0914C173.814 44.1055 173.117 43.3521 172.224 42.8313C171.331 42.3105 170.299 42.05 169.127 42.05C167.955 42.05 166.913 42.3105 166.002 42.8313C165.109 43.3521 164.411 44.1055 163.909 45.0914C163.407 46.0586 163.156 47.1933 163.156 48.4954C163.156 49.7975 163.407 50.9415 163.909 51.9274C164.411 52.9133 165.109 53.6759 166.002 54.2154C166.913 54.7362 167.955 54.9966 169.127 54.9966ZM208.585 38.8134L203.144 58.2891H198.54L194.885 44.4217L191.062 58.2891L186.486 58.317L181.241 38.8134H185.426L188.858 53.9363L192.82 38.8134H197.173L200.912 53.8526L204.371 38.8134H208.585Z" fill="white"/>
</svg>
