<svg width="221" height="82" viewBox="0 0 221 82" fill="none" xmlns="http://www.w3.org/2000/svg">
<rect width="221" height="82" rx="10" fill="black"/>
<path d="M50.12 52.21C48.72 52.21 47.46 51.97 46.34 51.49C45.22 50.99 44.34 50.29 43.7 49.39C43.06 48.49 42.74 47.44 42.74 46.24H46.4C46.48 47.14 46.83 47.88 47.45 48.46C48.09 49.04 48.98 49.33 50.12 49.33C51.3 49.33 52.22 49.05 52.88 48.49C53.54 47.91 53.87 47.17 53.87 46.27C53.87 45.57 53.66 45 53.24 44.56C52.84 44.12 52.33 43.78 51.71 43.54C51.11 43.3 50.27 43.04 49.19 42.76C47.83 42.4 46.72 42.04 45.86 41.68C45.02 41.3 44.3 40.72 43.7 39.94C43.1 39.16 42.8 38.12 42.8 36.82C42.8 35.62 43.1 34.57 43.7 33.67C44.3 32.77 45.14 32.08 46.22 31.6C47.3 31.12 48.55 30.88 49.97 30.88C51.99 30.88 53.64 31.39 54.92 32.41C56.22 33.41 56.94 34.79 57.08 36.55H53.3C53.24 35.79 52.88 35.14 52.22 34.6C51.56 34.06 50.69 33.79 49.61 33.79C48.63 33.79 47.83 34.04 47.21 34.54C46.59 35.04 46.28 35.76 46.28 36.7C46.28 37.34 46.47 37.87 46.85 38.29C47.25 38.69 47.75 39.01 48.35 39.25C48.95 39.49 49.77 39.75 50.81 40.03C52.19 40.41 53.31 40.79 54.17 41.17C55.05 41.55 55.79 42.14 56.39 42.94C57.01 43.72 57.32 44.77 57.32 46.09C57.32 47.15 57.03 48.15 56.45 49.09C55.89 50.03 55.06 50.79 53.96 51.37C52.88 51.93 51.6 52.21 50.12 52.21ZM68.4055 35.2C69.6655 35.2 70.7855 35.47 71.7655 36.01C72.7655 36.55 73.5455 37.35 74.1055 38.41C74.6855 39.47 74.9755 40.75 74.9755 42.25V52H71.5855V42.76C71.5855 41.28 71.2155 40.15 70.4755 39.37C69.7355 38.57 68.7255 38.17 67.4455 38.17C66.1655 38.17 65.1455 38.57 64.3855 39.37C63.6455 40.15 63.2755 41.28 63.2755 42.76V52H59.8555V29.8H63.2755V37.39C63.8555 36.69 64.5855 36.15 65.4655 35.77C66.3655 35.39 67.3455 35.2 68.4055 35.2ZM85.0079 52.27C83.4479 52.27 82.0379 51.92 80.7779 51.22C79.5179 50.5 78.5279 49.5 77.8079 48.22C77.0879 46.92 76.7279 45.42 76.7279 43.72C76.7279 42.04 77.0979 40.55 77.8379 39.25C78.5779 37.95 79.5879 36.95 80.8679 36.25C82.1479 35.55 83.5779 35.2 85.1579 35.2C86.7379 35.2 88.1679 35.55 89.4479 36.25C90.7279 36.95 91.7379 37.95 92.4779 39.25C93.2179 40.55 93.5879 42.04 93.5879 43.72C93.5879 45.4 93.2079 46.89 92.4479 48.19C91.6879 49.49 90.6479 50.5 89.3279 51.22C88.0279 51.92 86.5879 52.27 85.0079 52.27ZM85.0079 49.3C85.8879 49.3 86.7079 49.09 87.4679 48.67C88.2479 48.25 88.8779 47.62 89.3579 46.78C89.8379 45.94 90.0779 44.92 90.0779 43.72C90.0779 42.52 89.8479 41.51 89.3879 40.69C88.9279 39.85 88.3179 39.22 87.5579 38.8C86.7979 38.38 85.9779 38.17 85.0979 38.17C84.2179 38.17 83.3979 38.38 82.6379 38.8C81.8979 39.22 81.3079 39.85 80.8679 40.69C80.4279 41.51 80.2079 42.52 80.2079 43.72C80.2079 45.5 80.6579 46.88 81.5579 47.86C82.4779 48.82 83.6279 49.3 85.0079 49.3ZM98.8888 37.9C99.4688 37.14 100.259 36.5 101.259 35.98C102.259 35.46 103.389 35.2 104.649 35.2C106.089 35.2 107.399 35.56 108.579 36.28C109.779 36.98 110.719 37.97 111.399 39.25C112.079 40.53 112.419 42 112.419 43.66C112.419 45.32 112.079 46.81 111.399 48.13C110.719 49.43 109.779 50.45 108.579 51.19C107.399 51.91 106.089 52.27 104.649 52.27C103.389 52.27 102.269 52.02 101.289 51.52C100.309 51 99.5088 50.36 98.8888 49.6V59.86H95.4688V35.47H98.8888V37.9ZM108.939 43.66C108.939 42.52 108.699 41.54 108.219 40.72C107.759 39.88 107.139 39.25 106.359 38.83C105.599 38.39 104.779 38.17 103.899 38.17C103.039 38.17 102.219 38.39 101.439 38.83C100.679 39.27 100.059 39.91 99.5788 40.75C99.1188 41.59 98.8888 42.58 98.8888 43.72C98.8888 44.86 99.1188 45.86 99.5788 46.72C100.059 47.56 100.679 48.2 101.439 48.64C102.219 49.08 103.039 49.3 103.899 49.3C104.779 49.3 105.599 49.08 106.359 48.64C107.139 48.18 107.759 47.52 108.219 46.66C108.699 45.8 108.939 44.8 108.939 43.66ZM137.724 52H134.304L124.014 36.43V52H120.594V31.12H124.014L134.304 46.66V31.12H137.724V52ZM147.885 52.27C146.325 52.27 144.915 51.92 143.655 51.22C142.395 50.5 141.405 49.5 140.685 48.22C139.965 46.92 139.605 45.42 139.605 43.72C139.605 42.04 139.975 40.55 140.715 39.25C141.455 37.95 142.465 36.95 143.745 36.25C145.025 35.55 146.455 35.2 148.035 35.2C149.615 35.2 151.045 35.55 152.325 36.25C153.605 36.95 154.615 37.95 155.355 39.25C156.095 40.55 156.465 42.04 156.465 43.72C156.465 45.4 156.085 46.89 155.325 48.19C154.565 49.49 153.525 50.5 152.205 51.22C150.905 51.92 149.465 52.27 147.885 52.27ZM147.885 49.3C148.765 49.3 149.585 49.09 150.345 48.67C151.125 48.25 151.755 47.62 152.235 46.78C152.715 45.94 152.955 44.92 152.955 43.72C152.955 42.52 152.725 41.51 152.265 40.69C151.805 39.85 151.195 39.22 150.435 38.8C149.675 38.38 148.855 38.17 147.975 38.17C147.095 38.17 146.275 38.38 145.515 38.8C144.775 39.22 144.185 39.85 143.745 40.69C143.305 41.51 143.085 42.52 143.085 43.72C143.085 45.5 143.535 46.88 144.435 47.86C145.355 48.82 146.505 49.3 147.885 49.3ZM180.546 35.47L175.416 52H171.816L168.486 39.79L165.156 52H161.556L156.396 35.47H159.876L163.326 48.76L166.836 35.47H170.406L173.766 48.7L177.186 35.47H180.546Z" fill="white"/>
</svg>
