<svg width="135" height="62" viewBox="0 0 135 62" fill="none" xmlns="http://www.w3.org/2000/svg">
<rect x="0.264526" width="134" height="62" rx="7" fill="black"/>
<path d="M29.5605 39.168C28.4405 39.168 27.4325 38.976 26.5365 38.592C25.6405 38.192 24.9365 37.632 24.4245 36.912C23.9125 36.192 23.6565 35.352 23.6565 34.392H26.5845C26.6485 35.112 26.9285 35.704 27.4245 36.168C27.9365 36.632 28.6485 36.864 29.5605 36.864C30.5045 36.864 31.2405 36.64 31.7685 36.192C32.2965 35.728 32.5605 35.136 32.5605 34.416C32.5605 33.856 32.3925 33.4 32.0565 33.048C31.7365 32.696 31.3285 32.424 30.8325 32.232C30.3525 32.04 29.6805 31.832 28.8165 31.608C27.7285 31.32 26.8405 31.032 26.1525 30.744C25.4805 30.44 24.9045 29.976 24.4245 29.352C23.9445 28.728 23.7045 27.896 23.7045 26.856C23.7045 25.896 23.9445 25.056 24.4245 24.336C24.9045 23.616 25.5765 23.064 26.4405 22.68C27.3045 22.296 28.3045 22.104 29.4405 22.104C31.0565 22.104 32.3765 22.512 33.4005 23.328C34.4405 24.128 35.0165 25.232 35.1285 26.64H32.1045C32.0565 26.032 31.7685 25.512 31.2405 25.08C30.7125 24.648 30.0165 24.432 29.1525 24.432C28.3685 24.432 27.7285 24.632 27.2325 25.032C26.7365 25.432 26.4885 26.008 26.4885 26.76C26.4885 27.272 26.6405 27.696 26.9445 28.032C27.2645 28.352 27.6645 28.608 28.1445 28.8C28.6245 28.992 29.2805 29.2 30.1125 29.424C31.2165 29.728 32.1125 30.032 32.8005 30.336C33.5045 30.64 34.0965 31.112 34.5765 31.752C35.0725 32.376 35.3205 33.216 35.3205 34.272C35.3205 35.12 35.0885 35.92 34.6245 36.672C34.1765 37.424 33.5125 38.032 32.6325 38.496C31.7685 38.944 30.7445 39.168 29.5605 39.168ZM40.5649 22.32V39H37.8289V22.32H40.5649ZM55.509 27.12C55.077 26.288 54.477 25.664 53.709 25.248C52.941 24.816 52.053 24.6 51.045 24.6C49.941 24.6 48.957 24.848 48.093 25.344C47.229 25.84 46.549 26.544 46.053 27.456C45.573 28.368 45.333 29.424 45.333 30.624C45.333 31.824 45.573 32.888 46.053 33.816C46.549 34.728 47.229 35.432 48.093 35.928C48.957 36.424 49.941 36.672 51.045 36.672C52.533 36.672 53.741 36.256 54.669 35.424C55.597 34.592 56.165 33.464 56.373 32.04H50.109V29.856H59.301V31.992C59.125 33.288 58.661 34.48 57.909 35.568C57.173 36.656 56.205 37.528 55.005 38.184C53.821 38.824 52.501 39.144 51.045 39.144C49.477 39.144 48.045 38.784 46.749 38.064C45.453 37.328 44.421 36.312 43.653 35.016C42.901 33.72 42.525 32.256 42.525 30.624C42.525 28.992 42.901 27.528 43.653 26.232C44.421 24.936 45.453 23.928 46.749 23.208C48.061 22.472 49.493 22.104 51.045 22.104C52.821 22.104 54.397 22.544 55.773 23.424C57.165 24.288 58.173 25.52 58.797 27.12H55.509ZM74.9835 39H72.2475L64.0155 26.544V39H61.2795V22.296H64.0155L72.2475 34.728V22.296H74.9835V39ZM86.0828 22.32V32.952C86.0828 34.216 86.4108 35.168 87.0668 35.808C87.7388 36.448 88.6668 36.768 89.8508 36.768C91.0508 36.768 91.9788 36.448 92.6348 35.808C93.3068 35.168 93.6428 34.216 93.6428 32.952V22.32H96.3788V32.904C96.3788 34.264 96.0828 35.416 95.4908 36.36C94.8988 37.304 94.1068 38.008 93.1148 38.472C92.1228 38.936 91.0268 39.168 89.8268 39.168C88.6268 39.168 87.5308 38.936 86.5388 38.472C85.5628 38.008 84.7868 37.304 84.2108 36.36C83.6348 35.416 83.3468 34.264 83.3468 32.904V22.32H86.0828ZM110.885 27.288C110.885 28.136 110.685 28.936 110.285 29.688C109.885 30.44 109.245 31.056 108.365 31.536C107.485 32 106.357 32.232 104.981 32.232H101.957V39H99.2211V22.32H104.981C106.261 22.32 107.341 22.544 108.221 22.992C109.117 23.424 109.781 24.016 110.213 24.768C110.661 25.52 110.885 26.36 110.885 27.288ZM104.981 30C106.021 30 106.797 29.768 107.309 29.304C107.821 28.824 108.077 28.152 108.077 27.288C108.077 25.464 107.045 24.552 104.981 24.552H101.957V30H104.981Z" fill="#FEFEFE"/>
</svg>
